<svg xmlns="http://www.w3.org/2000/svg" version="1" viewBox="0 0 612 612"><style>.pre-ball { transform-origin: center center; opacity: 0; } .pre-ball-mother { transform-origin: center center; opacity: 0; } @keyframes pre-zoomIn { from { opacity: 0; transform: scale3d(0.3, 0.3, 0.3) } 50% { opacity: 1; } } .pre-zoomIn { animation-name: pre-zoomIn; } .pre-animated-1 { animation-duration: 0.3s; animation-timing-function: ease-out; } .pre-delay-1 { animation-delay: 0.15s; } .pre-infinite { animation-iteration-count: infinite; } .pre-forwards { animation-fill-mode: forwards; } .pre-animated-2 { animation-duration: 0.6s; animation-timing-function: ease-out; } .pre-delay-2 { animation-delay: 0.3s; } .pre-infinite { animation-iteration-count: infinite; } .pre-forwards { animation-fill-mode: forwards; } .pre-animated-3 { animation-duration: 0.9s; animation-timing-function: ease-out; } .pre-delay-3 { animation-delay: 0.45s; } .pre-infinite { animation-iteration-count: infinite; } .pre-forwards { animation-fill-mode: forwards; } .pre-animated-4 { animation-duration: 1.2s; animation-timing-function: ease-out; } .pre-delay-4 { animation-delay: 0.6s; } .pre-infinite { animation-iteration-count: infinite; } .pre-forwards { animation-fill-mode: forwards; } .pre-animated-5 { animation-duration: 1.5s; animation-timing-function: ease-out; } .pre-delay-5 { animation-delay: 0.75s; } .pre-infinite { animation-iteration-count: infinite; } .pre-forwards { animation-fill-mode: forwards; } .pre-animated-6 { animation-duration: 1.8s; animation-timing-function: ease-out; } .pre-delay-6 { animation-delay: 0.9s; } .pre-infinite { animation-iteration-count: infinite; } .pre-forwards { animation-fill-mode: forwards; } .pre-animated-7 { animation-duration: 2.1s; animation-timing-function: ease-out; } .pre-delay-7 { animation-delay: 1.05s; } .pre-infinite { animation-iteration-count: infinite; } .pre-forwards { animation-fill-mode: forwards; } .pre-animated-8 { animation-duration: 2.4s; animation-timing-function: ease-out; } .pre-delay-8 { animation-delay: 1.2s; } .pre-infinite { animation-iteration-count: infinite; } .pre-forwards { animation-fill-mode: forwards; } .pre-animated-9 { animation-duration: 2.7s; animation-timing-function: ease-out; } .pre-delay-9 { animation-delay: 1.35s; } .pre-infinite { animation-iteration-count: infinite; } .pre-forwards { animation-fill-mode: forwards; } .pre-animated-10 { animation-duration: 3s; animation-timing-function: ease-out; } .pre-delay-10 { animation-delay: 1.5s; } .pre-infinite { animation-iteration-count: infinite; } .pre-forwards { animation-fill-mode: forwards; }</style><radialGradient id="a"><stop offset="0" stop-color="#EFE31A"/><stop offset=".2311" stop-color="#EEE11B"/><stop offset=".4308" stop-color="#EEDA1C"/><stop offset=".6188" stop-color="#ECCE1E"/><stop offset=".7998" stop-color="#EBBD21"/><stop offset=".9741" stop-color="#E8A723"/><stop offset=".9879" stop-color="#E8A523"/></radialGradient><path fill="url(#a)" d="M560.2 247.4c30.5 135-54.1 269.1-189 299.6-135 30.5-269.2-54.1-299.7-189.1C41 223 125.7 89 260.8 58.4c134.9-30.5 268.9 54.1 299.4 189z" class="pre-ball-mother pre-animated-10 pre-delay-3 pre-zoomIn pre-forwards pre-infinite"/><path fill="url(#a)" d="M523.4 117c12.7 56.5-22.8 112.8-79.5 125.6-56.5 12.8-112.7-22.7-125.6-79.4-12.8-56.7 22.7-113 79.3-125.6 56.8-12.8 112.8 22.7 125.8 79.4z" class="pre-ball-mother pre-animated-10 pre-delay-3 pre-zoomIn pre-forwards pre-infinite"/><path fill="url(#a)" d="M579.4 373.1c10.2 44.5-17.9 88.9-62.4 99.1-44.7 9.9-88.9-17.9-99.1-62.5-10-44.7 18-89 62.6-99.1 44.5-10 88.7 17.8 98.9 62.5z" class="pre-ball pre-animated-10 pre-delay-6 pre-zoomIn pre-forwards pre-infinite"/><path fill="url(#a)" d="M231 484.3c8.1 36.7-14.9 73.2-51.4 81.5-36.8 8.3-73.2-14.8-81.5-51.5-8.4-36.7 14.6-73.2 51.5-81.5 36.5-8.3 73.1 14.7 81.4 51.5z" class="pre-ball pre-animated-10 pre-delay-1 pre-zoomIn pre-forwards pre-infinite"/><path fill="url(#a)" d="M334.5 230.7c6.1 27.1-10.8 53.9-37.7 60-27 6.1-53.8-10.8-60-37.9-6-26.9 11-53.7 37.9-59.8 26.9-6.1 53.8 10.6 59.8 37.7z" class="pre-ball pre-animated-10 pre-delay-2 pre-zoomIn pre-forwards pre-infinite"/><path fill="url(#a)" d="M117.5 291.3c6.1 27-10.9 53.8-37.9 59.9-27 6.1-53.6-10.9-59.9-37.9-6.1-27 10.8-53.8 37.7-59.8 27.1-6.1 54 10.9 60.1 37.8z" class="pre-ball pre-animated-10 pre-delay-5 pre-zoomIn pre-forwards pre-infinite"/><path fill="url(#a)" d="M199.8 136.9c7.3 32.6-12.9 65-45.7 72.3-32.5 7.4-64.8-13-72.1-45.5-7.4-32.5 13-64.9 45.5-72.2 32.5-7.5 64.9 12.9 72.3 45.4z" class="pre-ball pre-animated-10 pre-delay-7 pre-zoomIn pre-forwards pre-infinite"/><path fill="url(#a)" d="M389 295.4c7.9 34.5-13.7 68.7-48.4 76.5-34.2 7.7-68.4-13.9-76.2-48.2-7.7-34.5 13.9-68.7 48.3-76.5 34.3-7.8 68.6 13.7 76.3 48.2z" class="pre-ball pre-animated-10 pre-delay-4 pre-zoomIn pre-forwards pre-infinite"/></svg>